<svg width="24" height="24" viewBox="0 0 24 24" fill="none" xmlns="http://www.w3.org/2000/svg">
<g id="Right">
<path id="Vector" d="M20.5153 12.2653L13.7653 19.0153C13.6949 19.0857 13.5995 19.1252 13.5 19.1252C13.4005 19.1252 13.3051 19.0857 13.2347 19.0153C13.1643 18.945 13.1248 18.8495 13.1248 18.75C13.1248 18.6505 13.1643 18.5551 13.2347 18.4847L19.3444 12.375H3.75C3.65054 12.375 3.55516 12.3355 3.48484 12.2652C3.41451 12.1949 3.375 12.0995 3.375 12C3.375 11.9006 3.41451 11.8052 3.48484 11.7349C3.55516 11.6645 3.65054 11.625 3.75 11.625H19.3444L13.2347 5.51534C13.1643 5.44497 13.1248 5.34954 13.1248 5.25003C13.1248 5.15051 13.1643 5.05508 13.2347 4.98471C13.3051 4.91435 13.4005 4.87482 13.5 4.87482C13.5995 4.87482 13.6949 4.91435 13.7653 4.98471L20.5153 11.7347C20.5502 11.7695 20.5778 11.8109 20.5967 11.8564C20.6156 11.9019 20.6253 11.9507 20.6253 12C20.6253 12.0493 20.6156 12.0981 20.5967 12.1436C20.5778 12.1892 20.5502 12.2305 20.5153 12.2653Z" fill="white" fill-opacity="0.48"/>
</g>
</svg>
